STARTFONT 2.1
COMMENT
COMMENT Converted from OpenType font "Q:\font stuff\winfont\Thong.ttf" by "otf2bdf 3.0".
COMMENT
FONT -FreeType-Thong-Medium-R-Normal--36-360-72-72-P-118-ISO10646-1
SIZE 36 72 72
FONTBOUNDINGBOX 40 36 -2 -7
STARTPROPERTIES 19
FOUNDRY "FreeType"
FAMILY_NAME "Thong"
WEIGHT_NAME "Medium"
SLANT "R"
SETWIDTH_NAME "Normal"
ADD_STYLE_NAME ""
PIXEL_SIZE 36
POINT_SIZE 360
RESOLUTION_X 72
RESOLUTION_Y 72
SPACING "P"
AVERAGE_WIDTH 118
CHARSET_REGISTRY "ISO10646"
CHARSET_ENCODING "1"
FONT_ASCENT 29
FONT_DESCENT 6
COPYRIGHT "© Graham Meade. All rights reserved. gem@c031.aone.net.au"
_OTF_FONTFILE "Q:\font stuff\winfont\Thong.ttf"
_OTF_PSNAME "Thong"
ENDPROPERTIES
CHARS 207
STARTCHAR 0020
ENCODING 32
SWIDTH 361 0
DWIDTH 13 0
BBX 0 0 0 0
BITMAP
ENDCHAR
STARTCHAR 0021
ENCODING 33
SWIDTH 83 0
DWIDTH 3 0
BBX 1 23 1 0
BITMAP
80
80
80
80
80
80
80
80
80
80
80
80
80
80
80
80
80
80
00
00
00
00
80
ENDCHAR
STARTCHAR 0022
ENCODING 34
SWIDTH 138 0
DWIDTH 5 0
BBX 4 5 1 18
BITMAP
90
90
90
90
90
ENDCHAR
STARTCHAR 0023
ENCODING 35
SWIDTH 472 0
DWIDTH 17 0
BBX 15 16 1 4
BITMAP
1018
0860
0440
8446
C444
7FF8
0440
0440
0440
0440
7FF8
C444
8446
0C40
0860
1018
ENDCHAR
STARTCHAR 0024
ENCODING 36
SWIDTH 416 0
DWIDTH 15 0
BBX 13 30 1 -3
BITMAP
1FE0
08C0
0880
0480
1FC0
24A0
4490
8490
8488
8488
8480
8480
C480
6480
3F80
04E0
04B0
0490
0490
0488
0488
8488
8488
8490
44B0
34E0
1FC0
0480
0880
1FE0
ENDCHAR
STARTCHAR 0025
ENCODING 37
SWIDTH 805 0
DWIDTH 29 0
BBX 27 23 1 1
BITMAP
1F001000
61802000
40C02000
80404000
8060C000
80208000
80210000
80410000
80420000
40820000
21040000
1E0C0000
00081E00
00106180
0010C0C0
00208040
00608020
00408020
00808020
00808040
0100C0C0
03006180
02001E00
ENDCHAR
STARTCHAR 0026
ENCODING 38
SWIDTH 444 0
DWIDTH 16 0
BBX 14 24 1 -1
BITMAP
0F00
30C0
2020
4020
4010
4010
4010
4020
6060
30C0
3F00
1000
6000
8000
8000
8000
8000
800C
8008
8008
C018
6038
1FC8
000C
ENDCHAR
STARTCHAR 0027
ENCODING 39
SWIDTH 83 0
DWIDTH 3 0
BBX 1 5 1 18
BITMAP
80
80
80
80
80
ENDCHAR
STARTCHAR 0028
ENCODING 40
SWIDTH 222 0
DWIDTH 8 0
BBX 5 28 1 -2
BITMAP
18
30
40
80
80
80
80
80
80
80
80
80
80
80
80
80
80
80
80
80
80
80
80
80
80
40
30
18
ENDCHAR
STARTCHAR 0029
ENCODING 41
SWIDTH 222 0
DWIDTH 8 0
BBX 5 28 1 -2
BITMAP
C0
70
10
08
08
08
08
08
08
08
08
08
08
08
08
08
08
08
08
08
08
08
08
08
08
10
70
C0
ENDCHAR
STARTCHAR 002A
ENCODING 42
SWIDTH 305 0
DWIDTH 11 0
BBX 9 10 1 12
BITMAP
4200
4600
2400
2C00
1800
FF80
1C00
2400
2600
4200
ENDCHAR
STARTCHAR 002B
ENCODING 43
SWIDTH 472 0
DWIDTH 17 0
BBX 15 15 1 4
BITMAP
06C0
0300
0300
0100
0100
8102
C104
7FFC
C104
8102
0100
0100
0300
0300
06C0
ENDCHAR
STARTCHAR 002C
ENCODING 44
SWIDTH 111 0
DWIDTH 4 0
BBX 2 5 1 -3
BITMAP
C0
C0
40
C0
80
ENDCHAR
STARTCHAR 002D
ENCODING 45
SWIDTH 472 0
DWIDTH 17 0
BBX 15 6 1 9
BITMAP
8002
8004
4004
7FFC
C004
8002
ENDCHAR
STARTCHAR 002E
ENCODING 46
SWIDTH 111 0
DWIDTH 4 0
BBX 2 2 1 0
BITMAP
C0
C0
ENDCHAR
STARTCHAR 002F
ENCODING 47
SWIDTH 472 0
DWIDTH 17 0
BBX 14 23 1 1
BITMAP
0004
000C
0008
0018
0030
0020
0060
0040
00C0
0180
0100
0300
0200
0600
0400
0800
1800
1000
3000
2000
4000
4000
8000
ENDCHAR
STARTCHAR 0030
ENCODING 48
SWIDTH 388 0
DWIDTH 14 0
BBX 12 23 1 0
BITMAP
1F00
20C0
4060
8020
8010
8010
8010
8030
8070
80D0
9F90
A010
C010
8010
8010
8010
8010
8010
8030
8020
4060
20C0
1F00
ENDCHAR
STARTCHAR 0031
ENCODING 49
SWIDTH 111 0
DWIDTH 4 0
BBX 3 23 1 0
BITMAP
40
40
40
40
40
40
40
40
40
40
40
40
40
40
40
40
40
40
40
40
40
40
E0
ENDCHAR
STARTCHAR 0032
ENCODING 50
SWIDTH 388 0
DWIDTH 14 0
BBX 12 23 1 0
BITMAP
1F00
60C0
4060
8020
8010
8010
0010
0010
0030
0020
0060
00C0
1F00
6000
4000
8000
8000
8000
8000
8000
8000
8000
FFF0
ENDCHAR
STARTCHAR 0033
ENCODING 51
SWIDTH 388 0
DWIDTH 14 0
BBX 12 23 1 0
BITMAP
FF00
00C0
0060
0020
0010
0010
0010
0020
0060
00C0
0F80
00C0
0040
0020
0020
0010
0010
8010
8030
8020
4060
60C0
1F00
ENDCHAR
STARTCHAR 0034
ENCODING 52
SWIDTH 500 0
DWIDTH 18 0
BBX 15 23 1 1
BITMAP
0200
0600
0400
0400
0800
0800
0800
1000
1000
3000
2040
2040
4040
4040
FF42
C1C6
80FC
0040
0040
0040
0040
0040
0040
ENDCHAR
STARTCHAR 0035
ENCODING 53
SWIDTH 388 0
DWIDTH 14 0
BBX 12 23 1 0
BITMAP
FFF0
8000
8000
8000
8000
8000
8000
8000
FF00
00C0
0060
0020
0020
0010
0010
0010
0010
8010
8030
8020
4060
60C0
1F00
ENDCHAR
STARTCHAR 0036
ENCODING 54
SWIDTH 416 0
DWIDTH 15 0
BBX 13 23 1 0
BITMAP
1F80
6060
4030
8010
8008
8008
8000
8000
8000
C000
FF80
8060
8010
8010
8008
8008
8008
8008
8008
8010
4010
6060
1F80
ENDCHAR
STARTCHAR 0037
ENCODING 55
SWIDTH 500 0
DWIDTH 18 0
BBX 16 23 1 -1
BITMAP
3E03
C306
80FE
0004
0004
000C
0008
0008
0010
0010
0020
0020
0060
0040
0040
0080
0080
0180
0100
0100
0200
0200
0400
ENDCHAR
STARTCHAR 0038
ENCODING 56
SWIDTH 416 0
DWIDTH 15 0
BBX 13 23 1 0
BITMAP
0F00
30C0
2020
4020
4010
4010
4010
4020
6060
30C0
1F80
2040
4020
8010
8010
8008
8008
8008
8018
8010
4030
2060
1F80
ENDCHAR
STARTCHAR 0039
ENCODING 57
SWIDTH 416 0
DWIDTH 15 0
BBX 13 23 1 0
BITMAP
1F80
6060
4030
8010
8008
8008
8008
8008
8008
8008
4008
6008
1FE8
0018
0018
0008
0008
8008
8018
8010
4030
6060
1F80
ENDCHAR
STARTCHAR 003A
ENCODING 58
SWIDTH 111 0
DWIDTH 4 0
BBX 2 13 1 0
BITMAP
C0
C0
00
00
00
00
00
00
00
00
00
C0
C0
ENDCHAR
STARTCHAR 003B
ENCODING 59
SWIDTH 111 0
DWIDTH 4 0
BBX 2 16 1 -3
BITMAP
C0
C0
00
00
00
00
00
00
00
00
00
C0
C0
40
C0
80
ENDCHAR
STARTCHAR 003C
ENCODING 60
SWIDTH 416 0
DWIDTH 15 0
BBX 13 11 1 6
BITMAP
0008
0070
01C0
0E00
3800
E000
3800
0600
01C0
0030
0008
ENDCHAR
STARTCHAR 003D
ENCODING 61
SWIDTH 472 0
DWIDTH 17 0
BBX 15 11 1 6
BITMAP
8006
C004
7FF8
0000
0000
0000
0000
7FF8
C004
8004
8002
ENDCHAR
STARTCHAR 003E
ENCODING 62
SWIDTH 416 0
DWIDTH 15 0
BBX 13 11 1 6
BITMAP
8000
6000
1C00
0300
00E0
0038
00E0
0700
1C00
6000
8000
ENDCHAR
STARTCHAR 003F
ENCODING 63
SWIDTH 416 0
DWIDTH 15 0
BBX 13 23 1 0
BITMAP
1F80
6060
4030
8010
8008
8008
0008
0010
0030
0060
0780
0C00
0800
0800
0800
0800
0800
0800
0000
0000
0000
0000
0800
ENDCHAR
STARTCHAR 0040
ENCODING 64
SWIDTH 666 0
DWIDTH 24 0
BBX 22 23 1 0
BITMAP
002000
007000
00C800
018400
030200
06FD00
0D8480
190240
300630
607E18
C0820C
810204
410208
210210
110420
090C40
04F080
020100
010200
008400
00C800
007000
002000
ENDCHAR
STARTCHAR 0041
ENCODING 65
SWIDTH 416 0
DWIDTH 15 0
BBX 13 23 1 0
BITMAP
1F80
6060
4030
8010
8008
8008
8008
8008
8008
8008
9F88
A068
C038
8018
8018
8008
8008
8008
8008
8008
8008
8008
8008
ENDCHAR
STARTCHAR 0042
ENCODING 66
SWIDTH 416 0
DWIDTH 15 0
BBX 13 23 1 0
BITMAP
1F80
6060
4030
8010
8008
8008
8008
8010
8030
8060
9FC0
A040
C020
8010
8010
8008
8008
8008
8018
8010
8030
8060
FF80
ENDCHAR
STARTCHAR 0043
ENCODING 67
SWIDTH 416 0
DWIDTH 15 0
BBX 13 23 1 0
BITMAP
1FC0
6060
4010
8018
8008
8008
8000
8000
8000
8000
8000
8000
8000
8000
8000
8000
8000
8008
8008
8018
4010
2060
1FC0
ENDCHAR
STARTCHAR 0044
ENCODING 68
SWIDTH 416 0
DWIDTH 15 0
BBX 13 23 1 0
BITMAP
FF80
8060
8030
8010
8010
8008
8008
8008
8008
8008
8008
8008
8008
8008
8008
8008
8008
8008
8010
8010
8030
8060
FF80
ENDCHAR
STARTCHAR 0045
ENCODING 69
SWIDTH 361 0
DWIDTH 13 0
BBX 12 23 1 0
BITMAP
1FF0
2000
4000
8000
8000
8000
8000
8000
8000
8000
9F00
A000
C000
8000
8000
8000
8000
8000
8000
8000
8000
8000
FFF0
ENDCHAR
STARTCHAR 0046
ENCODING 70
SWIDTH 333 0
DWIDTH 12 0
BBX 11 23 1 0
BITMAP
1FE0
2000
4000
8000
8000
8000
8000
8000
8000
8000
9F00
A000
C000
8000
8000
8000
8000
8000
8000
8000
8000
8000
8000
ENDCHAR
STARTCHAR 0047
ENCODING 71
SWIDTH 416 0
DWIDTH 15 0
BBX 13 23 1 0
BITMAP
1F80
6060
4030
8010
8008
8008
8000
8000
8000
8000
8000
8000
8F80
8060
8030
8010
8008
8008
8008
8018
4038
2068
1F88
ENDCHAR
STARTCHAR 0048
ENCODING 72
SWIDTH 416 0
DWIDTH 15 0
BBX 13 23 1 0
BITMAP
8008
8008
8008
8008
8008
8008
8008
8008
8008
9F88
E068
C038
8018
8018
8008
8008
8008
8008
8008
8008
8008
8008
8008
ENDCHAR
STARTCHAR 0049
ENCODING 73
SWIDTH 111 0
DWIDTH 4 0
BBX 3 23 1 0
BITMAP
E0
40
40
40
40
40
40
40
40
40
40
40
40
40
40
40
40
40
40
40
40
40
E0
ENDCHAR
STARTCHAR 004A
ENCODING 74
SWIDTH 416 0
DWIDTH 15 0
BBX 13 23 1 0
BITMAP
0008
0008
0008
0008
0008
0008
0008
0008
0008
0008
0008
0008
0008
0008
0008
0008
0008
8008
8010
8010
4030
2060
1F80
ENDCHAR
STARTCHAR 004B
ENCODING 75
SWIDTH 416 0
DWIDTH 15 0
BBX 13 23 1 0
BITMAP
8008
8008
8008
8008
8008
8008
8008
8010
8010
8060
9FC0
A040
C020
8010
8010
8008
8008
8008
8008
8008
8008
8008
8008
ENDCHAR
STARTCHAR 004C
ENCODING 76
SWIDTH 361 0
DWIDTH 13 0
BBX 12 23 1 0
BITMAP
8000
8000
8000
8000
8000
8000
8000
8000
8000
8000
8000
8000
8000
8000
8000
8000
8000
8000
8000
8000
8000
8000
FFF0
ENDCHAR
STARTCHAR 004D
ENCODING 77
SWIDTH 638 0
DWIDTH 23 0
BBX 21 23 1 0
BITMAP
1F07C0
619860
407010
806010
802008
802008
802008
802008
802008
802008
802008
802008
802008
802008
802008
802008
802008
802008
802008
802008
802008
802008
802008
ENDCHAR
STARTCHAR 004E
ENCODING 78
SWIDTH 416 0
DWIDTH 15 0
BBX 13 23 1 0
BITMAP
8008
8008
C008
C008
A008
B008
9008
9808
8808
8C08
8408
8208
8208
8108
8108
8088
8088
8048
8048
8028
8028
8018
8018
ENDCHAR
STARTCHAR 004F
ENCODING 79
SWIDTH 416 0
DWIDTH 15 0
BBX 13 23 1 0
BITMAP
1F80
6060
4030
8010
8010
8008
8008
8008
8008
8008
8008
8008
8008
8008
8008
8008
8008
8008
8010
8010
4030
6060
1F80
ENDCHAR
STARTCHAR 0050
ENCODING 80
SWIDTH 416 0
DWIDTH 15 0
BBX 13 23 1 0
BITMAP
FF80
8060
8030
8010
8010
8008
8008
8008
8008
8018
8010
C030
A060
9F80
8000
8000
8000
8000
8000
8000
8000
8000
8000
ENDCHAR
STARTCHAR 0051
ENCODING 81
SWIDTH 416 0
DWIDTH 15 0
BBX 13 28 1 -5
BITMAP
1F80
6060
4030
8010
8008
8008
8008
8008
8008
8008
8008
8008
8608
8408
8408
8408
8408
8408
8218
8190
40F0
2060
1FA0
0010
0010
0010
0020
0020
ENDCHAR
STARTCHAR 0052
ENCODING 82
SWIDTH 416 0
DWIDTH 15 0
BBX 13 23 1 0
BITMAP
FF80
8060
8030
8010
8008
8008
8008
8010
8030
8060
9FC0
E040
C020
8010
8010
8008
8008
8008
8008
8008
8008
8008
8008
ENDCHAR
STARTCHAR 0053
ENCODING 83
SWIDTH 416 0
DWIDTH 15 0
BBX 13 23 1 0
BITMAP
1FC0
6060
4030
8010
8018
8000
8000
8000
4000
6000
1F80
0060
0030
0010
0010
0008
0008
8008
8018
8010
4030
2060
1F80
ENDCHAR
STARTCHAR 0054
ENCODING 84
SWIDTH 500 0
DWIDTH 18 0
BBX 17 23 1 0
BITMAP
3F0080
C0C300
807E00
004000
004000
004000
004000
004000
004000
004000
004000
004000
004000
004000
004000
004000
004000
004000
004000
004000
004000
004000
004000
ENDCHAR
STARTCHAR 0055
ENCODING 85
SWIDTH 416 0
DWIDTH 15 0
BBX 13 23 1 0
BITMAP
8008
8008
8008
8008
8008
8008
8008
8008
8008
8008
8008
8008
8008
8008
8008
8008
8008
8008
8010
8010
4030
6060
1F80
ENDCHAR
STARTCHAR 0056
ENCODING 86
SWIDTH 472 0
DWIDTH 17 0
BBX 15 23 1 0
BITMAP
8002
8004
8004
8004
8004
8004
4004
4004
4008
4008
4008
4008
2008
2008
2010
2010
2010
2010
2010
1010
1020
0860
0780
ENDCHAR
STARTCHAR 0057
ENCODING 87
SWIDTH 638 0
DWIDTH 23 0
BBX 21 23 1 0
BITMAP
802008
802008
802008
802008
802008
802008
802008
802008
802008
802008
802008
802008
802008
802008
802008
802008
802008
802008
802008
806010
405010
609860
1F07C0
ENDCHAR
STARTCHAR 0058
ENCODING 88
SWIDTH 416 0
DWIDTH 15 0
BBX 13 23 1 0
BITMAP
8008
8008
8008
8008
8008
8008
8008
8018
8010
C030
6060
1FC0
6060
C010
8010
8008
8008
8008
8008
8008
8008
8008
8008
ENDCHAR
STARTCHAR 0059
ENCODING 89
SWIDTH 416 0
DWIDTH 15 0
BBX 13 23 1 0
BITMAP
8008
8008
8008
8008
8008
8008
8008
8008
8008
8008
8018
4070
39E0
0700
0200
0200
0200
0200
0200
0200
0200
0200
0200
ENDCHAR
STARTCHAR 005A
ENCODING 90
SWIDTH 416 0
DWIDTH 15 0
BBX 13 23 1 0
BITMAP
FFF8
0008
0008
0008
0018
0010
0010
0030
0020
0060
00C0
0F00
1800
2000
2000
4000
4000
C000
8000
8000
8000
8000
FFF8
ENDCHAR
STARTCHAR 005B
ENCODING 91
SWIDTH 166 0
DWIDTH 6 0
BBX 4 28 1 -2
BITMAP
F0
80
80
80
80
80
80
80
80
80
80
80
80
80
80
80
80
80
80
80
80
80
80
80
80
80
80
F0
ENDCHAR
STARTCHAR 005C
ENCODING 92
SWIDTH 472 0
DWIDTH 17 0
BBX 14 23 1 1
BITMAP
8000
4000
6000
2000
1000
1000
0800
0800
0400
0200
0200
0100
0100
0080
00C0
0040
0020
0020
0010
0018
0008
0004
0004
ENDCHAR
STARTCHAR 005D
ENCODING 93
SWIDTH 166 0
DWIDTH 6 0
BBX 4 28 1 -2
BITMAP
F0
F0
10
10
10
10
10
10
10
10
10
10
10
10
10
10
10
10
10
10
10
10
10
10
10
10
10
F0
ENDCHAR
STARTCHAR 005E
ENCODING 94
SWIDTH 250 0
DWIDTH 9 0
BBX 6 4 1 18
BITMAP
30
68
48
84
ENDCHAR
STARTCHAR 005F
ENCODING 95
SWIDTH 472 0
DWIDTH 17 0
BBX 16 1 0 -7
BITMAP
FFFF
ENDCHAR
STARTCHAR 0060
ENCODING 96
SWIDTH 138 0
DWIDTH 5 0
BBX 3 3 1 20
BITMAP
80
40
60
ENDCHAR
STARTCHAR 0061
ENCODING 97
SWIDTH 361 0
DWIDTH 13 0
BBX 11 16 1 0
BITMAP
3F80
6040
C060
0020
0060
0060
1FA0
6020
4020
8020
8020
8060
8040
80C0
C180
7E00
ENDCHAR
STARTCHAR 0062
ENCODING 98
SWIDTH 361 0
DWIDTH 13 0
BBX 12 23 1 0
BITMAP
8000
8000
8000
8000
8000
8000
8000
9F00
E0C0
C060
8020
8020
8010
8010
8010
8010
8010
8010
8020
8020
4060
20C0
1F00
ENDCHAR
STARTCHAR 0063
ENCODING 99
SWIDTH 361 0
DWIDTH 13 0
BBX 11 16 1 0
BITMAP
1F00
2180
4040
8020
8020
8020
8000
8000
8000
8000
8020
8020
8020
4040
2180
1F00
ENDCHAR
STARTCHAR 0064
ENCODING 100
SWIDTH 361 0
DWIDTH 13 0
BBX 12 23 1 0
BITMAP
0010
0010
0010
0010
0010
0010
0010
1F10
20D0
4070
8030
8030
8010
8010
8010
8010
8010
8010
8020
8020
4060
20C0
1F00
ENDCHAR
STARTCHAR 0065
ENCODING 101
SWIDTH 361 0
DWIDTH 13 0
BBX 12 16 1 0
BITMAP
1F00
20C0
4060
8020
8030
8030
9FF0
E000
C000
8000
8010
8030
8020
4060
20C0
1F00
ENDCHAR
STARTCHAR 0066
ENCODING 102
SWIDTH 333 0
DWIDTH 12 0
BBX 11 23 1 0
BITMAP
1F00
2180
4040
8020
8020
8020
8000
8000
8000
8000
9F00
A000
C000
8000
8000
8000
8000
8000
8000
8000
8000
8000
8000
ENDCHAR
STARTCHAR 0067
ENCODING 103
SWIDTH 361 0
DWIDTH 13 0
BBX 12 23 1 -7
BITMAP
1F00
30C0
4060
8020
8020
8010
8010
8010
8010
8010
8010
8030
8030
4070
70D0
1F10
0010
8010
8030
8020
4060
30C0
1F00
ENDCHAR
STARTCHAR 0068
ENCODING 104
SWIDTH 361 0
DWIDTH 13 0
BBX 12 23 1 0
BITMAP
8000
8000
8000
8000
8000
8000
8000
9F00
E0C0
C060
8020
8010
8010
8010
8010
8010
8010
8010
8010
8010
8010
8010
8010
ENDCHAR
STARTCHAR 0069
ENCODING 105
SWIDTH 83 0
DWIDTH 3 0
BBX 1 19 1 0
BITMAP
80
00
00
80
80
80
80
80
80
80
80
80
80
80
80
80
80
80
80
ENDCHAR
STARTCHAR 006A
ENCODING 106
SWIDTH 138 0
DWIDTH 5 0
BBX 6 26 -2 -7
BITMAP
04
00
00
04
04
04
04
04
04
04
04
04
04
04
04
04
04
04
04
04
04
04
0C
08
30
C0
ENDCHAR
STARTCHAR 006B
ENCODING 107
SWIDTH 361 0
DWIDTH 13 0
BBX 12 23 1 0
BITMAP
8000
8000
8000
8000
8000
8000
8000
8010
8010
8010
8020
8020
8060
80C0
9F00
E0C0
C060
8020
8010
8010
8010
8010
8010
ENDCHAR
STARTCHAR 006C
ENCODING 108
SWIDTH 83 0
DWIDTH 3 0
BBX 1 23 1 0
BITMAP
80
80
80
80
80
80
80
80
80
80
80
80
80
80
80
80
80
80
80
80
80
80
80
ENDCHAR
STARTCHAR 006D
ENCODING 109
SWIDTH 638 0
DWIDTH 23 0
BBX 21 16 1 0
BITMAP
1F07C0
619860
407010
806010
802008
802008
802008
802008
802008
802008
802008
802008
802008
802008
802008
802008
ENDCHAR
STARTCHAR 006E
ENCODING 110
SWIDTH 361 0
DWIDTH 13 0
BBX 11 16 1 0
BITMAP
1F00
2180
4040
8040
8020
8020
8020
8020
8020
8020
8020
8020
8020
8020
8020
8020
ENDCHAR
STARTCHAR 006F
ENCODING 111
SWIDTH 361 0
DWIDTH 13 0
BBX 12 16 1 0
BITMAP
1F00
20C0
4060
8020
8020
8010
8010
8010
8010
8010
8010
8020
8020
4060
20C0
1F00
ENDCHAR
STARTCHAR 0070
ENCODING 112
SWIDTH 361 0
DWIDTH 13 0
BBX 12 23 1 -7
BITMAP
1F00
20C0
4060
8020
8020
8010
8010
8010
8010
8010
8010
8020
8020
C060
A0C0
9F00
8000
8000
8000
8000
8000
8000
8000
ENDCHAR
STARTCHAR 0071
ENCODING 113
SWIDTH 361 0
DWIDTH 13 0
BBX 12 23 1 -7
BITMAP
1F00
20C0
4060
8020
8020
8010
8010
8010
8010
8010
8010
8030
8030
4070
20D0
1F10
0010
0010
0010
0010
0010
0010
0010
ENDCHAR
STARTCHAR 0072
ENCODING 114
SWIDTH 305 0
DWIDTH 11 0
BBX 10 16 1 0
BITMAP
1F00
6180
4040
8000
8000
8000
8000
8000
8000
8000
8000
8000
8000
8000
8000
8000
ENDCHAR
STARTCHAR 0073
ENCODING 115
SWIDTH 333 0
DWIDTH 12 0
BBX 10 16 1 0
BITMAP
7F00
C080
80C0
8000
8000
8000
C000
7F00
0080
0080
0040
0040
0040
80C0
C080
7F00
ENDCHAR
STARTCHAR 0074
ENCODING 116
SWIDTH 250 0
DWIDTH 9 0
BBX 8 21 1 0
BITMAP
80
80
80
80
9F
E0
C0
80
80
80
80
80
80
80
80
80
80
80
80
80
80
ENDCHAR
STARTCHAR 0075
ENCODING 117
SWIDTH 361 0
DWIDTH 13 0
BBX 11 16 1 0
BITMAP
8020
8020
8020
8020
8020
8020
8020
8020
8020
8020
8020
8020
8040
4040
6080
1F00
ENDCHAR
STARTCHAR 0076
ENCODING 118
SWIDTH 416 0
DWIDTH 15 0
BBX 12 16 1 0
BITMAP
8010
8010
8010
4010
4020
4020
4020
4020
2040
2040
2040
2040
1080
1080
0980
0F00
ENDCHAR
STARTCHAR 0077
ENCODING 119
SWIDTH 638 0
DWIDTH 23 0
BBX 21 16 1 0
BITMAP
802008
802008
802008
802008
802008
802008
802008
802008
802008
802008
802008
802008
806010
405010
209860
1F07C0
ENDCHAR
STARTCHAR 0078
ENCODING 120
SWIDTH 361 0
DWIDTH 13 0
BBX 11 16 1 0
BITMAP
8020
8020
8020
8020
8040
C040
60C0
3F80
2100
40C0
8040
8040
8020
8020
8020
8020
ENDCHAR
STARTCHAR 0079
ENCODING 121
SWIDTH 361 0
DWIDTH 13 0
BBX 12 23 1 -7
BITMAP
8010
8010
8010
8010
8010
8010
8010
8010
8010
8010
8010
8030
8030
4070
30D0
1F10
0010
8010
8030
8020
4060
20C0
1F00
ENDCHAR
STARTCHAR 007A
ENCODING 122
SWIDTH 361 0
DWIDTH 13 0
BBX 11 16 1 0
BITMAP
FFE0
0020
0020
0020
0040
0040
0080
1F00
2000
4000
8000
8000
8000
8000
8000
FFE0
ENDCHAR
STARTCHAR 007B
ENCODING 123
SWIDTH 333 0
DWIDTH 12 0
BBX 10 28 1 -2
BITMAP
00C0
0380
0200
0400
0400
0400
0400
0400
0400
0400
0800
0800
1000
E000
E000
1000
0800
0800
0400
0400
0400
0400
0400
0400
0400
0200
0300
00C0
ENDCHAR
STARTCHAR 007C
ENCODING 124
SWIDTH 222 0
DWIDTH 8 0
BBX 5 28 2 -2
BITMAP
98
60
20
20
20
20
20
20
20
20
20
20
20
20
20
20
20
20
20
20
20
20
20
20
20
60
60
98
ENDCHAR
STARTCHAR 007D
ENCODING 125
SWIDTH 333 0
DWIDTH 12 0
BBX 10 28 1 -2
BITMAP
C000
7000
1000
0800
0800
0800
0800
0800
0800
0C00
0400
0400
0200
01C0
01C0
0200
0400
0400
0C00
0800
0800
0800
0800
0800
0800
1000
7000
C000
ENDCHAR
STARTCHAR 007E
ENCODING 126
SWIDTH 527 0
DWIDTH 19 0
BBX 17 4 1 14
BITMAP
3E0080
618100
C04300
803C00
ENDCHAR
STARTCHAR 00A0
ENCODING 160
SWIDTH 361 0
DWIDTH 13 0
BBX 0 0 0 0
BITMAP
ENDCHAR
STARTCHAR 00A1
ENCODING 161
SWIDTH 83 0
DWIDTH 3 0
BBX 1 23 1 -4
BITMAP
80
00
00
00
80
80
80
80
80
80
80
80
80
80
80
80
80
80
80
80
80
80
80
ENDCHAR
STARTCHAR 00A2
ENCODING 162
SWIDTH 361 0
DWIDTH 13 0
BBX 12 23 1 -3
BITMAP
3FC0
1100
1100
0900
3F80
6BC0
CB60
8B20
8B30
8B00
8B00
8B00
8B00
8B00
8B30
8B20
8B20
4B60
3BC0
0F00
0900
1100
3FC0
ENDCHAR
STARTCHAR 00A3
ENCODING 163
SWIDTH 388 0
DWIDTH 14 0
BBX 15 23 -1 0
BITMAP
01FE
0600
0800
1800
1000
1000
1000
1000
1000
13C0
DC20
7000
1000
1000
1000
1000
1000
1000
1000
1000
1000
1000
1FFE
ENDCHAR
STARTCHAR 00A4
ENCODING 164
SWIDTH 416 0
DWIDTH 15 0
BBX 13 13 1 10
BITMAP
79E0
CF10
8610
8F08
9998
F0D0
6060
E070
9090
8908
8618
CE10
79E0
ENDCHAR
STARTCHAR 00A5
ENCODING 165
SWIDTH 416 0
DWIDTH 15 0
BBX 13 23 1 0
BITMAP
8008
8008
8008
8008
8008
8008
8008
8018
C030
79E0
0700
0600
FFF8
0200
0200
0200
3FE0
0200
0200
0200
0200
0200
0200
ENDCHAR
STARTCHAR 00A6
ENCODING 166
SWIDTH 222 0
DWIDTH 8 0
BBX 5 23 2 0
BITMAP
D8
60
20
20
20
20
20
20
60
98
00
00
00
D8
60
20
20
20
20
20
20
60
98
ENDCHAR
STARTCHAR 00A7
ENCODING 167
SWIDTH 333 0
DWIDTH 12 0
BBX 10 24 1 -3
BITMAP
7F00
C180
80C0
8000
8000
8000
8000
C000
7F00
C080
80C0
8040
8040
80C0
C080
7F00
0080
00C0
0040
0040
0040
80C0
C080
7F00
ENDCHAR
STARTCHAR 00A8
ENCODING 168
SWIDTH 222 0
DWIDTH 8 0
BBX 6 2 1 24
BITMAP
CC
CC
ENDCHAR
STARTCHAR 00A9
ENCODING 169
SWIDTH 472 0
DWIDTH 17 0
BBX 17 21 -1 1
BITMAP
1FF800
300600
43E100
C41980
881880
880C80
880C80
880080
880080
880080
880080
880080
880080
880080
880C80
880C80
881C80
C41980
43F100
300600
1FFC00
ENDCHAR
STARTCHAR 00AA
ENCODING 170
SWIDTH 361 0
DWIDTH 13 0
BBX 10 13 1 10
BITMAP
1F80
6040
C040
0040
1FC0
3040
4040
C040
8040
8040
80C0
4180
3E00
ENDCHAR
STARTCHAR 00AC
ENCODING 172
SWIDTH 444 0
DWIDTH 16 0
BBX 13 4 1 7
BITMAP
FFF0
0018
0008
0008
ENDCHAR
STARTCHAR 00AD
ENCODING 173
SWIDTH 388 0
DWIDTH 14 0
BBX 12 1 1 10
BITMAP
FFF0
ENDCHAR
STARTCHAR 00AE
ENCODING 174
SWIDTH 472 0
DWIDTH 17 0
BBX 17 21 -1 1
BITMAP
1FF800
300600
4FF100
C81980
880480
880480
880480
880480
880880
8BF080
8C1080
880880
880880
880880
880880
880880
880880
C80980
480900
300600
1FFC00
ENDCHAR
STARTCHAR 00B1
ENCODING 177
SWIDTH 472 0
DWIDTH 17 0
BBX 15 17 1 2
BITMAP
0CC0
0300
0300
0100
0100
8102
C104
7FFC
C104
8102
0100
0100
0300
0380
3FFC
C006
8002
ENDCHAR
STARTCHAR 00B2
ENCODING 178
SWIDTH 250 0
DWIDTH 9 0
BBX 7 14 1 9
BITMAP
1C
66
82
02
02
02
06
1C
60
80
80
80
80
FE
ENDCHAR
STARTCHAR 00B3
ENCODING 179
SWIDTH 250 0
DWIDTH 9 0
BBX 7 14 1 9
BITMAP
F8
04
02
02
02
04
1C
04
02
02
82
86
C4
78
ENDCHAR
STARTCHAR 00B4
ENCODING 180
SWIDTH 138 0
DWIDTH 5 0
BBX 3 3 1 21
BITMAP
60
C0
80
ENDCHAR
STARTCHAR 00B5
ENCODING 181
SWIDTH 361 0
DWIDTH 13 0
BBX 11 23 1 -7
BITMAP
8020
8020
8020
8020
8020
8020
8020
8020
8020
8020
8020
8020
8040
C040
A0C0
9F60
8000
8000
8000
8000
8000
8000
8000
ENDCHAR
STARTCHAR 00B6
ENCODING 182
SWIDTH 333 0
DWIDTH 12 0
BBX 10 25 1 -2
BITMAP
1FC0
3E40
7E40
FE40
FE40
FE40
FE40
FE40
FE40
FE40
7E40
1E40
0240
0240
0240
0240
0240
0240
0240
0240
0240
0240
0240
0240
0240
ENDCHAR
STARTCHAR 00B8
ENCODING 184
SWIDTH 305 0
DWIDTH 11 0
BBX 4 7 6 -5
BITMAP
40
40
60
10
10
90
E0
ENDCHAR
STARTCHAR 00B9
ENCODING 185
SWIDTH 83 0
DWIDTH 3 0
BBX 2 13 1 10
BITMAP
80
80
80
80
80
80
80
80
80
80
80
80
C0
ENDCHAR
STARTCHAR 00BA
ENCODING 186
SWIDTH 166 0
DWIDTH 6 0
BBX 5 4 1 19
BITMAP
70
88
98
70
ENDCHAR
STARTCHAR 00BC
ENCODING 188
SWIDTH 555 0
DWIDTH 20 0
BBX 18 23 1 1
BITMAP
00C000
80C000
808000
808000
818000
818000
810000
810000
830000
820800
820800
861000
861000
C43000
042000
0C2400
084400
087C00
08C7C0
180400
100400
100400
300400
ENDCHAR
STARTCHAR 00BD
ENCODING 189
SWIDTH 555 0
DWIDTH 20 0
BBX 17 23 1 1
BITMAP
00C000
80C000
808000
808000
818000
810000
810000
830000
830000
820E00
821100
862080
842080
C40080
0C0080
0C0180
080700
081800
182000
102000
102000
302000
203F80
ENDCHAR
STARTCHAR 00BE
ENCODING 190
SWIDTH 666 0
DWIDTH 24 0
BBX 22 23 1 1
BITMAP
FC0400
020C00
030C00
010800
030800
061800
381800
041000
021000
013080
812080
832180
C26100
7C6100
004200
004220
00C220
0087A0
00847C
008020
018020
010020
010020
ENDCHAR
STARTCHAR 00BF
ENCODING 191
SWIDTH 416 0
DWIDTH 15 0
BBX 13 23 1 -4
BITMAP
0080
0000
0000
0000
0080
0080
0080
0080
0080
0080
0100
1E00
2000
4000
8000
8000
8000
8008
8008
8018
4030
2060
1F80
ENDCHAR
STARTCHAR 00C0
ENCODING 192
SWIDTH 416 0
DWIDTH 15 0
BBX 13 28 1 0
BITMAP
0400
0200
0300
0000
0000
1F80
6060
4030
8010
8008
8008
8008
8008
8008
8008
9F88
A068
C038
8018
8018
8008
8008
8008
8008
8008
8008
8008
8008
ENDCHAR
STARTCHAR 00C1
ENCODING 193
SWIDTH 416 0
DWIDTH 15 0
BBX 13 28 1 0
BITMAP
0300
0200
0400
0000
0000
1F80
6060
4030
8010
8008
8008
8008
8008
8008
8008
9F88
A068
C038
8018
8018
8008
8008
8008
8008
8008
8008
8008
8008
ENDCHAR
STARTCHAR 00C2
ENCODING 194
SWIDTH 416 0
DWIDTH 15 0
BBX 13 29 1 0
BITMAP
0600
0500
0980
0080
0000
0000
1F80
6060
4030
8010
8008
8008
8008
8008
8008
8008
9F88
A068
C038
8018
8018
8008
8008
8008
8008
8008
8008
8008
8008
ENDCHAR
STARTCHAR 00C3
ENCODING 195
SWIDTH 416 0
DWIDTH 15 0
BBX 13 27 1 1
BITMAP
33C0
1C20
0000
0000
1F80
6060
4030
8010
8008
8008
8008
8008
8008
8008
9F88
A068
C038
8018
8018
8008
8008
8008
8008
8008
8008
8008
8008
ENDCHAR
STARTCHAR 00C4
ENCODING 196
SWIDTH 416 0
DWIDTH 15 0
BBX 13 28 1 0
BITMAP
0DC0
0DC0
0000
0000
0000
1F80
6060
4010
8010
8008
8008
8008
8008
8008
8008
9F88
B068
C018
8018
8018
8008
8008
8008
8008
8008
8008
8008
8008
ENDCHAR
STARTCHAR 00C5
ENCODING 197
SWIDTH 416 0
DWIDTH 15 0
BBX 13 29 1 0
BITMAP
0700
0480
0480
0700
0000
0000
1F80
6060
4030
8010
8008
8008
8008
8008
8008
8008
9F88
A068
C038
8018
8018
8008
8008
8008
8008
8008
8008
8008
8008
ENDCHAR
STARTCHAR 00C6
ENCODING 198
SWIDTH 722 0
DWIDTH 26 0
BBX 24 23 1 0
BITMAP
1FC1FF
606200
403400
801800
800800
800800
800800
800800
800800
800800
9F89F0
A06A00
C03C00
801800
801800
800800
800800
800800
800800
800800
800800
800800
800FFF
ENDCHAR
STARTCHAR 00C7
ENCODING 199
SWIDTH 416 0
DWIDTH 15 0
BBX 13 29 1 -6
BITMAP
1FC0
6060
4010
8018
8008
8008
8000
8000
8000
8000
8000
8000
8000
8000
8000
8000
8000
8008
8008
8018
4010
2060
1FC0
0200
0300
0100
0080
0580
0700
ENDCHAR
STARTCHAR 00C8
ENCODING 200
SWIDTH 361 0
DWIDTH 13 0
BBX 12 28 1 0
BITMAP
0C00
0400
0200
0000
0000
1FF0
2000
4000
8000
8000
8000
8000
8000
8000
8000
9F00
A000
C000
8000
8000
8000
8000
8000
8000
8000
8000
8000
FFF0
ENDCHAR
STARTCHAR 00C9
ENCODING 201
SWIDTH 361 0
DWIDTH 13 0
BBX 12 28 1 0
BITMAP
0600
0400
0800
0000
0000
1FF0
2000
4000
8000
8000
8000
8000
8000
8000
8000
9F00
A000
C000
8000
8000
8000
8000
8000
8000
8000
8000
8000
FFF0
ENDCHAR
STARTCHAR 00CA
ENCODING 202
SWIDTH 361 0
DWIDTH 13 0
BBX 12 29 1 0
BITMAP
0C00
0A00
1300
0100
0000
0000
1FF0
2000
4000
8000
8000
8000
8000
8000
8000
8000
9F00
A000
C000
8000
8000
8000
8000
8000
8000
8000
8000
8000
FFF0
ENDCHAR
STARTCHAR 00CB
ENCODING 203
SWIDTH 361 0
DWIDTH 13 0
BBX 11 28 1 0
BITMAP
1980
1980
0000
0000
0000
1FE0
6000
4000
8000
8000
8000
8000
8000
8000
8000
9F00
A000
C000
8000
8000
8000
8000
8000
8000
8000
8000
8000
FFE0
ENDCHAR
STARTCHAR 00CC
ENCODING 204
SWIDTH 166 0
DWIDTH 6 0
BBX 3 28 1 0
BITMAP
C0
40
20
00
00
E0
40
40
40
40
40
40
40
40
40
40
40
40
40
40
40
40
40
40
40
40
40
E0
ENDCHAR
STARTCHAR 00CD
ENCODING 205
SWIDTH 166 0
DWIDTH 6 0
BBX 3 28 1 0
BITMAP
60
40
C0
00
00
E0
40
40
40
40
40
40
40
40
40
40
40
40
40
40
40
40
40
40
40
40
40
E0
ENDCHAR
STARTCHAR 00CE
ENCODING 206
SWIDTH 194 0
DWIDTH 7 0
BBX 5 29 1 0
BITMAP
40
A0
B0
18
00
00
E0
40
40
40
40
40
40
40
40
40
40
40
40
40
40
40
40
40
40
40
40
40
E0
ENDCHAR
STARTCHAR 00CF
ENCODING 207
SWIDTH 194 0
DWIDTH 7 0
BBX 5 28 0 0
BITMAP
88
88
00
00
00
70
20
20
20
20
20
20
20
20
20
20
20
20
20
20
20
20
20
20
20
20
20
70
ENDCHAR
STARTCHAR 00D0
ENCODING 208
SWIDTH 444 0
DWIDTH 16 0
BBX 16 23 -1 0
BITMAP
1FF8
100C
1002
1003
1001
1001
1001
1001
9001
5001
3FC1
1061
1021
1021
1001
1001
1001
1001
1001
1003
1002
100C
1FF8
ENDCHAR
STARTCHAR 00D1
ENCODING 209
SWIDTH 416 0
DWIDTH 15 0
BBX 13 27 1 1
BITMAP
33C0
1C20
0000
0000
8008
8008
C008
C008
A008
A008
9008
9808
8808
8C08
8408
8208
8208
8108
8108
8088
8088
8048
8048
8028
8028
8018
8018
ENDCHAR
STARTCHAR 00D2
ENCODING 210
SWIDTH 416 0
DWIDTH 15 0
BBX 13 28 1 0
BITMAP
0400
0200
0300
0000
0000
1F80
6060
4030
8010
8010
8008
8008
8008
8008
8008
8008
8008
8008
8008
8008
8008
8008
8008
8010
8010
4030
6060
1F80
ENDCHAR
STARTCHAR 00D3
ENCODING 211
SWIDTH 416 0
DWIDTH 15 0
BBX 13 28 1 0
BITMAP
0300
0200
0400
0000
0000
1F80
6060
4030
8010
8010
8008
8008
8008
8008
8008
8008
8008
8008
8008
8008
8008
8008
8008
8010
8010
4030
6060
1F80
ENDCHAR
STARTCHAR 00D4
ENCODING 212
SWIDTH 416 0
DWIDTH 15 0
BBX 13 29 1 0
BITMAP
0600
0700
0980
0180
0000
0000
1F80
6060
4030
8010
8010
8008
8008
8008
8008
8008
8008
8008
8008
8008
8008
8008
8008
8008
8010
8010
4030
6060
1F80
ENDCHAR
STARTCHAR 00D5
ENCODING 213
SWIDTH 416 0
DWIDTH 15 0
BBX 13 27 1 1
BITMAP
33C0
1C20
0000
0000
1F80
6060
4030
8010
8010
8008
8008
8008
8008
8008
8008
8008
8008
8008
8008
8008
8008
8008
8010
8010
4030
6060
1F80
ENDCHAR
STARTCHAR 00D6
ENCODING 214
SWIDTH 416 0
DWIDTH 15 0
BBX 13 28 1 0
BITMAP
0D80
0D80
0000
0000
0000
1F80
6060
4030
8010
8010
8008
8008
8008
8008
8008
8008
8008
8008
8008
8008
8008
8008
8008
8010
8010
4030
6060
1F80
ENDCHAR
STARTCHAR 00D8
ENCODING 216
SWIDTH 444 0
DWIDTH 16 0
BBX 14 23 0 1
BITMAP
0FE4
1834
2008
601C
4014
4024
4024
4044
40C4
4084
4104
4104
4204
4604
4404
4C04
4804
5004
5004
600C
6008
7030
8FE0
ENDCHAR
STARTCHAR 00D9
ENCODING 217
SWIDTH 416 0
DWIDTH 15 0
BBX 13 28 1 0
BITMAP
0400
0200
0300
0000
0000
8008
8008
8008
8008
8008
8008
8008
8008
8008
8008
8008
8008
8008
8008
8008
8008
8008
8008
8010
8010
4030
6060
1F80
ENDCHAR
STARTCHAR 00DA
ENCODING 218
SWIDTH 416 0
DWIDTH 15 0
BBX 13 28 1 0
BITMAP
0300
0200
0400
0000
0000
8008
8008
8008
8008
8008
8008
8008
8008
8008
8008
8008
8008
8008
8008
8008
8008
8008
8008
8010
8010
4030
6060
1F80
ENDCHAR
STARTCHAR 00DB
ENCODING 219
SWIDTH 416 0
DWIDTH 15 0
BBX 13 29 1 0
BITMAP
0600
0700
0980
0180
0000
0000
8008
8008
8008
8008
8008
8008
8008
8008
8008
8008
8008
8008
8008
8008
8008
8008
8008
8008
8010
8010
4030
6060
1F80
ENDCHAR
STARTCHAR 00DC
ENCODING 220
SWIDTH 416 0
DWIDTH 15 0
BBX 13 28 1 0
BITMAP
0D80
0D80
0000
0000
0000
8008
8008
8008
8008
8008
8008
8008
8008
8008
8008
8008
8008
8008
8008
8008
8008
8008
8008
8010
8010
4030
6060
1F80
ENDCHAR
STARTCHAR 00DD
ENCODING 221
SWIDTH 416 0
DWIDTH 15 0
BBX 13 28 1 0
BITMAP
0200
0600
0400
0000
0000
8008
8008
8008
8008
8008
8008
8008
8008
8008
8008
8018
4070
39E0
0700
0200
0200
0200
0200
0200
0200
0200
0200
0200
ENDCHAR
STARTCHAR 00DE
ENCODING 222
SWIDTH 361 0
DWIDTH 13 0
BBX 12 23 1 0
BITMAP
8000
8000
8000
FF00
80C0
8040
8020
8020
8010
8010
8010
8010
8010
8010
8010
8020
8020
8060
80C0
FF00
8000
8000
8000
ENDCHAR
STARTCHAR 00DF
ENCODING 223
SWIDTH 416 0
DWIDTH 15 0
BBX 13 25 1 -2
BITMAP
1F00
2080
4040
8020
8020
8020
8020
8020
8060
80C0
8780
8040
8020
8010
8010
8008
8008
8008
8008
8008
8018
8010
8030
0060
1F80
ENDCHAR
STARTCHAR 00E0
ENCODING 224
SWIDTH 361 0
DWIDTH 13 0
BBX 11 21 1 0
BITMAP
0C00
0400
0600
0000
0000
3F80
6040
C060
0020
0060
0060
1FA0
6020
4020
8020
8020
8060
8040
80C0
C180
7E00
ENDCHAR
STARTCHAR 00E1
ENCODING 225
SWIDTH 361 0
DWIDTH 13 0
BBX 11 21 1 0
BITMAP
0600
0400
0800
0000
0000
3F80
6040
C060
0020
0060
0060
1FA0
6020
4020
8020
8020
8060
8040
80C0
C180
7E00
ENDCHAR
STARTCHAR 00E2
ENCODING 226
SWIDTH 361 0
DWIDTH 13 0
BBX 11 22 1 0
BITMAP
0C00
0E00
1300
1300
0000
0000
3F80
6040
C060
0020
0060
0060
1FA0
6020
4020
8020
8020
8060
8040
80C0
C180
7E00
ENDCHAR
STARTCHAR 00E3
ENCODING 227
SWIDTH 361 0
DWIDTH 13 0
BBX 11 20 1 1
BITMAP
4780
3C40
0000
0000
3F80
6040
C060
0020
0060
0060
1FA0
6020
4020
8020
8020
8060
8040
80C0
C180
7E00
ENDCHAR
STARTCHAR 00E4
ENCODING 228
SWIDTH 361 0
DWIDTH 13 0
BBX 11 21 1 0
BITMAP
1980
1980
0000
0000
0000
3F80
6040
C060
0020
0060
0060
1FA0
6020
4020
8020
8020
8060
8040
80C0
C180
7E00
ENDCHAR
STARTCHAR 00E5
ENCODING 229
SWIDTH 361 0
DWIDTH 13 0
BBX 11 22 1 0
BITMAP
0E00
1200
1100
1200
0E00
0000
3F80
6040
C060
0020
0060
0060
1FA0
6020
4020
8020
8020
8060
8040
80C0
C180
7E00
ENDCHAR
STARTCHAR 00E6
ENCODING 230
SWIDTH 638 0
DWIDTH 23 0
BBX 22 16 1 0
BITMAP
3F87C0
605870
C07018
002008
00600C
00600C
1FA7FC
603800
403000
802000
802004
80600C
806008
80D018
C18830
7F07C0
ENDCHAR
STARTCHAR 00E7
ENCODING 231
SWIDTH 361 0
DWIDTH 13 0
BBX 11 22 1 -6
BITMAP
1F00
2180
4040
8020
8020
8020
8000
8000
8000
8000
8020
8020
8020
4040
21C0
1F00
0400
0600
0200
0100
0B00
0E00
ENDCHAR
STARTCHAR 00E8
ENCODING 232
SWIDTH 361 0
DWIDTH 13 0
BBX 12 21 1 0
BITMAP
0C00
0400
0200
0000
0000
1F00
20C0
4060
8020
8030
8030
9FF0
E000
C000
8000
8010
8030
8020
4060
20C0
1F00
ENDCHAR
STARTCHAR 00E9
ENCODING 233
SWIDTH 361 0
DWIDTH 13 0
BBX 12 21 1 0
BITMAP
0200
0400
0C00
0000
0000
1F00
20C0
4060
8020
8030
8030
9FF0
E000
C000
8000
8010
8030
8020
4060
20C0
1F00
ENDCHAR
STARTCHAR 00EA
ENCODING 234
SWIDTH 361 0
DWIDTH 13 0
BBX 12 22 1 0
BITMAP
0600
0A00
1B00
1100
0000
0000
1F00
20C0
4060
8020
8030
8030
9FF0
E000
C000
8000
8010
8030
8020
4060
20C0
1F00
ENDCHAR
STARTCHAR 00EB
ENCODING 235
SWIDTH 361 0
DWIDTH 13 0
BBX 12 21 1 0
BITMAP
1980
1980
0000
0000
0000
1F00
20C0
4060
8020
8030
8030
9FF0
E000
C000
8000
8010
8030
8020
4060
20C0
1F00
ENDCHAR
STARTCHAR 00EC
ENCODING 236
SWIDTH 83 0
DWIDTH 3 0
BBX 3 21 0 0
BITMAP
C0
40
60
00
00
40
40
40
40
40
40
40
40
40
40
40
40
40
40
40
40
ENDCHAR
STARTCHAR 00ED
ENCODING 237
SWIDTH 83 0
DWIDTH 3 0
BBX 3 21 0 0
BITMAP
60
40
C0
00
00
40
40
40
40
40
40
40
40
40
40
40
40
40
40
40
40
ENDCHAR
STARTCHAR 00EE
ENCODING 238
SWIDTH 83 0
DWIDTH 3 0
BBX 5 22 -1 0
BITMAP
60
70
98
88
00
00
20
20
20
20
20
20
20
20
20
20
20
20
20
20
20
20
ENDCHAR
STARTCHAR 00EF
ENCODING 239
SWIDTH 83 0
DWIDTH 3 0
BBX 6 21 -1 0
BITMAP
CC
CC
00
00
00
20
20
20
20
20
20
20
20
20
20
20
20
20
20
20
20
ENDCHAR
STARTCHAR 00F1
ENCODING 241
SWIDTH 361 0
DWIDTH 13 0
BBX 11 20 1 1
BITMAP
4780
7C40
0000
0000
1F00
2180
4040
8040
8020
8020
8020
8020
8020
8020
8020
8020
8020
8020
8020
8020
ENDCHAR
STARTCHAR 00F2
ENCODING 242
SWIDTH 361 0
DWIDTH 13 0
BBX 12 21 1 0
BITMAP
0C00
0400
0200
0000
0000
1F00
20C0
4060
8020
8020
8010
8010
8010
8010
8010
8010
8020
8020
4060
20C0
1F00
ENDCHAR
STARTCHAR 00F3
ENCODING 243
SWIDTH 361 0
DWIDTH 13 0
BBX 12 21 1 0
BITMAP
0200
0400
0C00
0000
0000
1F00
20C0
4060
8020
8020
8010
8010
8010
8010
8010
8010
8020
8020
4060
20C0
1F00
ENDCHAR
STARTCHAR 00F4
ENCODING 244
SWIDTH 361 0
DWIDTH 13 0
BBX 12 22 1 0
BITMAP
0600
0A00
1B00
1100
0000
0000
1F00
20C0
4060
8020
8020
8010
8010
8010
8010
8010
8010
8020
8020
4060
20C0
1F00
ENDCHAR
STARTCHAR 00F5
ENCODING 245
SWIDTH 361 0
DWIDTH 13 0
BBX 12 20 1 1
BITMAP
4780
3C40
0000
0000
1F00
20C0
4060
8020
8020
8010
8010
8010
8010
8010
8010
8020
8020
4060
20C0
1F00
ENDCHAR
STARTCHAR 00F6
ENCODING 246
SWIDTH 361 0
DWIDTH 13 0
BBX 12 21 1 0
BITMAP
1980
1980
0000
0000
0000
1F00
20C0
4060
8020
8020
8010
8010
8010
8010
8010
8010
8020
8020
4060
20C0
1F00
ENDCHAR
STARTCHAR 00F8
ENCODING 248
SWIDTH 361 0
DWIDTH 13 0
BBX 12 17 1 -1
BITMAP
0020
1F60
20C0
40E0
80A0
8130
8310
8210
8410
8410
8810
9810
9020
A020
6060
70C0
DF00
ENDCHAR
STARTCHAR 00F9
ENCODING 249
SWIDTH 361 0
DWIDTH 13 0
BBX 11 21 1 0
BITMAP
0C00
0400
0600
0000
0000
8020
8020
8020
8020
8020
8020
8020
8020
8020
8020
8020
8020
8040
4040
2080
1F00
ENDCHAR
STARTCHAR 00FA
ENCODING 250
SWIDTH 361 0
DWIDTH 13 0
BBX 11 21 1 0
BITMAP
0600
0400
0800
0000
0000
8020
8020
8020
8020
8020
8020
8020
8020
8020
8020
8020
8020
8040
4040
2080
1F00
ENDCHAR
STARTCHAR 00FB
ENCODING 251
SWIDTH 361 0
DWIDTH 13 0
BBX 11 22 1 0
BITMAP
0C00
0E00
1300
1300
0000
0000
8020
8020
8020
8020
8020
8020
8020
8020
8020
8020
8020
8020
8040
4040
2080
1F00
ENDCHAR
STARTCHAR 00FC
ENCODING 252
SWIDTH 361 0
DWIDTH 13 0
BBX 11 21 1 0
BITMAP
1980
1980
0000
0000
0000
8020
8020
8020
8020
8020
8020
8020
8020
8020
8020
8020
8020
8040
4040
2080
1F00
ENDCHAR
STARTCHAR 00FD
ENCODING 253
SWIDTH 361 0
DWIDTH 13 0
BBX 12 28 1 -7
BITMAP
0200
0400
0C00
0000
0000
8010
8010
8010
8010
8010
8010
8010
8010
8010
8010
8010
8030
8030
4070
30D0
1F10
0010
8010
8030
8020
4060
20C0
1F00
ENDCHAR
STARTCHAR 00FE
ENCODING 254
SWIDTH 361 0
DWIDTH 13 0
BBX 12 24 1 -4
BITMAP
8000
8000
8000
8000
9F00
E0C0
C060
8020
8020
8010
8010
8010
8010
8010
8010
8020
8020
C060
E0C0
9F00
8000
8000
8000
8000
ENDCHAR
STARTCHAR 00FF
ENCODING 255
SWIDTH 361 0
DWIDTH 13 0
BBX 12 28 1 -7
BITMAP
1980
1980
0000
0000
0000
8010
8010
8010
8010
8010
8010
8010
8010
8010
8010
8010
8030
8030
4070
30D0
1F10
0010
8010
8030
8020
4060
20C0
1F00
ENDCHAR
STARTCHAR 0152
ENCODING 338
SWIDTH 694 0
DWIDTH 25 0
BBX 24 23 1 0
BITMAP
1FC1FF
606200
403400
801800
801800
800800
800800
800800
800800
800800
8009F0
800A00
800C00
800800
800800
800800
800800
800800
801800
801800
403800
206800
1F8FFF
ENDCHAR
STARTCHAR 0153
ENCODING 339
SWIDTH 666 0
DWIDTH 24 0
BBX 22 16 1 0
BITMAP
1F03C0
21CC30
40D018
806008
806004
802004
8027FC
803800
803000
802000
802004
80600C
806008
40D018
618830
1F07C0
ENDCHAR
STARTCHAR 0160
ENCODING 352
SWIDTH 416 0
DWIDTH 15 0
BBX 13 29 1 0
BITMAP
0880
0D80
0700
0600
0000
0000
1FC0
6060
4030
8010
8018
8000
8000
8000
4000
6000
1F80
0060
0030
0010
0010
0008
0008
8008
8018
8010
4030
2060
1F80
ENDCHAR
STARTCHAR 0161
ENCODING 353
SWIDTH 333 0
DWIDTH 12 0
BBX 10 22 1 0
BITMAP
2200
3600
1400
1C00
0000
0000
7F00
C080
80C0
8000
8000
8000
C000
7F00
0080
0080
0040
0040
0040
80C0
C080
7F00
ENDCHAR
STARTCHAR 0178
ENCODING 376
SWIDTH 416 0
DWIDTH 15 0
BBX 13 23 1 0
BITMAP
8008
8008
8008
8008
8008
8008
8008
8008
8008
8008
8018
4070
39E0
0700
0200
0200
0200
0200
0200
0200
0200
0200
0200
ENDCHAR
STARTCHAR 02C6
ENCODING 710
SWIDTH 333 0
DWIDTH 12 0
BBX 5 4 5 21
BITMAP
60
70
98
98
ENDCHAR
STARTCHAR 02DC
ENCODING 732
SWIDTH 333 0
DWIDTH 12 0
BBX 9 2 1 22
BITMAP
CF00
7880
ENDCHAR
STARTCHAR 03BC
ENCODING 956
SWIDTH 361 0
DWIDTH 13 0
BBX 11 23 1 -7
BITMAP
8020
8020
8020
8020
8020
8020
8020
8020
8020
8020
8020
8020
8040
C040
A0C0
9F60
8000
8000
8000
8000
8000
8000
8000
ENDCHAR
STARTCHAR 2010
ENCODING 8208
SWIDTH 472 0
DWIDTH 17 0
BBX 15 6 1 9
BITMAP
8002
8004
4004
7FFC
C004
8002
ENDCHAR
STARTCHAR 2013
ENCODING 8211
SWIDTH 527 0
DWIDTH 19 0
BBX 20 6 -1 9
BITMAP
800010
400010
400020
7FFFE0
400030
800010
ENDCHAR
STARTCHAR 2014
ENCODING 8212
SWIDTH 694 0
DWIDTH 25 0
BBX 26 6 -1 9
BITMAP
80000040
40000040
400000C0
7FFFFFC0
400000C0
80000040
ENDCHAR
STARTCHAR 2018
ENCODING 8216
SWIDTH 111 0
DWIDTH 4 0
BBX 3 4 1 19
BITMAP
40
80
60
60
ENDCHAR
STARTCHAR 2019
ENCODING 8217
SWIDTH 111 0
DWIDTH 4 0
BBX 2 5 1 18
BITMAP
C0
C0
40
C0
80
ENDCHAR
STARTCHAR 201A
ENCODING 8218
SWIDTH 111 0
DWIDTH 4 0
BBX 2 5 1 -3
BITMAP
C0
C0
40
C0
80
ENDCHAR
STARTCHAR 201C
ENCODING 8220
SWIDTH 222 0
DWIDTH 8 0
BBX 6 5 1 18
BITMAP
88
90
88
CC
CC
ENDCHAR
STARTCHAR 201D
ENCODING 8221
SWIDTH 222 0
DWIDTH 8 0
BBX 6 5 1 18
BITMAP
D8
D8
4C
C8
90
ENDCHAR
STARTCHAR 201E
ENCODING 8222
SWIDTH 222 0
DWIDTH 8 0
BBX 6 5 1 -3
BITMAP
CC
CC
44
CC
88
ENDCHAR
STARTCHAR 2020
ENCODING 8224
SWIDTH 222 0
DWIDTH 8 0
BBX 6 24 1 -2
BITMAP
10
10
30
D8
DC
30
10
10
10
10
10
10
10
10
10
10
10
10
10
10
10
10
10
10
ENDCHAR
STARTCHAR 2021
ENCODING 8225
SWIDTH 194 0
DWIDTH 7 0
BBX 7 24 0 -2
BITMAP
10
18
18
6C
EE
18
18
10
10
10
10
10
10
10
10
10
10
18
38
EE
78
30
20
20
ENDCHAR
STARTCHAR 2026
ENCODING 8230
SWIDTH 472 0
DWIDTH 17 0
BBX 15 2 1 0
BITMAP
8102
8102
ENDCHAR
STARTCHAR 2030
ENCODING 8240
SWIDTH 1083 0
DWIDTH 39 0
BBX 37 23 1 1
BITMAP
1F00400000
6180400000
40C0800000
8041800000
8061000000
8022000000
8022000000
8044000000
804C000000
4088000000
2118000000
1E10000000
0021F00F80
00220C3060
0044062030
00C8024010
0088014008
0108014008
0108014008
0208024010
0604062030
04060C3060
0801F00F80
ENDCHAR
STARTCHAR 2074
ENCODING 8308
SWIDTH 305 0
DWIDTH 11 0
BBX 9 14 1 9
BITMAP
1800
1000
1000
2000
2000
2000
4400
4400
F400
8F80
0400
0400
0400
0400
ENDCHAR
STARTCHAR 2122
ENCODING 8482
SWIDTH 611 0
DWIDTH 22 0
BBX 20 10 1 7
BITMAP
704000
8F8000
047BE0
058E30
050410
050410
050410
050410
050410
050410
ENDCHAR
STARTCHAR 2212
ENCODING 8722
SWIDTH 388 0
DWIDTH 14 0
BBX 12 1 1 10
BITMAP
FFF0
ENDCHAR
ENDFONT
